# xmcd
#
# Track frame offsets: 
#        150
#        17027
#        32510
#        49001
#        69326
#        85283
#
# Disc length: 1359 seconds
#
# Revision: 0
# Processed by: cddbd v1.5.2PL0 Copyright (c) Steve Scherf et al.
# Submitted via: ExactAudioCopyFreeDBPlugin 1.0
#
DISCID=40054d06
DTITLE=David Starr - The head and heart
DYEAR=2017
DGENRE=Country
TTITLE0=The Edge of the World
TTITLE1=The Head And The Heart
TTITLE2=California Dreamin' (feat John Oates)
TTITLE3=Walking In The Dark
TTITLE4=I've Come For You
TTITLE5=Dancing With My Pride
EXTD=
EXTT0=
EXTT1=
EXTT2=
EXTT3=
EXTT4=
EXTT5=
PLAYORDER=
